<svg xmlns="http://www.w3.org/2000/svg" viewBox="0 0 240 240" role="img" aria-labelledby="title"><title id="title">Apostolic Vineyard Church Logo</title><defs><radialGradient id="bg" cx="50%" cy="40%" r="70%"><stop offset="0%" stop-color="#ffffff"/><stop offset="100%" stop-color="#d3e4d1"/></radialGradient><linearGradient id="tree" x1="0%" y1="30%" x2="100%" y2="90%"><stop offset="0%" stop-color="#2c7c2c"/><stop offset="100%" stop-color="#135713"/></linearGradient></defs><circle cx="120" cy="120" r="108" fill="#fff" stroke="#000" stroke-width="6"/><circle cx="120" cy="120" r="96" fill="url(#bg)"/><path d="M120 60c-34 0-50 24-50 36 0 24 26 37 34 54 1 3 2 6 2 9v22h28v-22c0-3 1-6 2-9 8-17 34-30 34-54 0-12-16-36-50-36z" fill="url(#tree)"/><path d="M120 90c-18 0-26 9-26 20 0 3 2 6 4 6 4 0 12-3 22-3s18 3 22 3c2 0 4-3 4-6 0-11-8-20-26-20z" fill="#fff"/><path d="M100 130c0 0-6 14-6 22 0 16 14 26 26 26s26-10 26-26c0-8-6-22-6-22h-40z" fill="#7a4d1e"/><path d="M110 170c0 8 3 15 10 15s10-7 10-15" fill="#7a4d1e"/><text x="120" y="210" font-family="Arial, sans-serif" font-size="16" fill="#000" text-anchor="middle">Apostolic Vineyard Church</text></svg>